<svg width="101" height="26" viewBox="0 0 101 26" fill="none" xmlns="http://www.w3.org/2000/svg">
<path d="M91.1048 22.7549H76.7266V23.6463H91.1048V22.7549Z" fill="#232323"/>
<path d="M22.1322 22.7549H7.75391V23.6463H22.1322V22.7549Z" fill="#232323"/>
<path d="M20.7036 8.57244C20.7036 4.77248 23.3877 0.891451 27.3098 0.891451C30.6446 0.891451 33.184 1.82793 34.9192 3.7009C35.9404 4.78145 36.8441 6.49234 37.6304 8.82454V1.52179C35.2717 0.504262 31.8014 0 27.2375 0C19.6643 0 12.5068 3.02553 12.5068 8.5814C12.5068 14.5875 17.8569 17.2439 27.3098 17.2439C31.0241 17.2439 34.5577 16.3254 37.9015 14.4795V13.1558C35.0548 14.8847 31.5122 15.7581 27.2737 15.7581C24.8427 15.7581 20.7036 14.8396 20.7036 8.5814" fill="#232323"/>
<path d="M98.8406 0.576172H90.6709V0.891313C92.7133 1.21548 93.7255 1.73773 93.7255 2.4491V9.78791C93.1743 8.70735 91.909 7.59077 89.9389 6.46519L85.2124 3.7638C83.6851 2.89035 83.0074 1.82782 83.1971 0.576172H70.9336V0.891313C72.6959 0.96335 73.5725 1.2245 73.5725 1.69274V14.1191C73.5725 15.2537 72.741 16.0371 71.0692 16.4784V16.7935H77.7386V16.4784C76.0667 16.0371 75.2353 15.2087 75.2353 13.984V1.76479C75.398 4.16903 76.9163 6.42918 79.7901 8.55428C80.7661 9.29266 83.658 10.9675 88.4749 13.5699C92.0446 15.5059 94.3581 17.2347 95.4245 18.7655V2.49417C95.4245 1.72877 96.5632 1.19748 98.8316 0.900326V0.58513L98.8406 0.576172Z" fill="#232323"/>
<path d="M12.2093 16.4424C10.9531 16.1902 10.1398 16.2262 9.7783 15.731C9.6337 15.4608 9.56141 14.4703 9.56141 14.1372V2.07092C9.56141 1.4496 10.6368 0.909339 12.2003 0.909339V0.576172H0V0.909339C1.58152 0.909339 2.63888 1.19747 2.63888 2.07092V14.7045C2.63888 15.0827 2.5485 15.4248 2.35872 15.722C1.97012 16.1542 1.18388 16.1992 0 16.4333V16.7665H12.2003V16.4333L12.2093 16.4424Z" fill="#232323"/>
<path d="M55.5887 0.251709H55.2724C47.157 0.251709 40.5869 4.09673 40.5869 8.84218C40.5869 13.5876 47.166 17.4326 55.2724 17.4326H55.5887C63.7042 17.4326 70.2743 13.5876 70.2743 8.84218C70.2743 4.09673 63.6951 0.251709 55.5887 0.251709ZM55.4351 16.5321C51.8021 16.5321 48.865 13.0924 48.865 8.84218C48.865 4.59198 51.8112 1.15217 55.4351 1.15217C59.059 1.15217 62.0052 4.59198 62.0052 8.84218C62.0052 13.0924 59.059 16.5321 55.4351 16.5321Z" fill="#232323"/>
<path d="M33.8615 21.2869H32.9578C32.9126 21.2869 32.8674 21.3049 32.8313 21.3499L31.4847 23.1868H31.4757L30.1292 21.3499C30.093 21.3049 30.0478 21.2869 30.0026 21.2869H29.0989C29.0989 21.2869 29.0176 21.3319 29.0176 21.3679V25.2399C29.0176 25.2399 29.0628 25.3209 29.0989 25.3209H30.1472C30.1472 25.3209 30.2286 25.2759 30.2286 25.2399V23.1958H30.2466C30.2466 23.1958 30.3461 23.403 30.4997 23.6011L31.4757 24.9427L32.4608 23.6011C32.6054 23.403 32.7138 23.1958 32.7138 23.1958H32.7228V25.2399C32.7228 25.2399 32.768 25.3209 32.8042 25.3209H33.8525C33.8525 25.3209 33.9338 25.2759 33.9338 25.2399V21.3679C33.9338 21.3679 33.8887 21.2869 33.8525 21.2869" fill="#232323"/>
<path d="M42.8734 24.3032H40.6592V23.763H42.6384C42.6384 23.763 42.7288 23.7089 42.7288 23.6729V22.9075C42.7288 22.9075 42.6745 22.8175 42.6384 22.8175H40.6592V22.3222H42.8462C42.8462 22.3222 42.9366 22.2682 42.9366 22.2322V21.3948C42.9366 21.3948 42.8824 21.3047 42.8462 21.3047H39.5296C39.5296 21.3047 39.4482 21.3407 39.4482 21.3858V25.2577C39.4482 25.2577 39.4844 25.3388 39.5296 25.3388H42.8734C42.8734 25.3388 42.9637 25.2847 42.9637 25.2487V24.4113C42.9637 24.4113 42.9095 24.3213 42.8734 24.3213" fill="#232323"/>
<path d="M50.9518 21.2869H49.8221L48.0056 25.1949C48.0056 25.1949 47.9785 25.2579 47.9785 25.2759C47.9785 25.2939 47.9876 25.3209 48.0327 25.3209H49.1624C49.2437 25.3209 49.2708 25.3029 49.307 25.2309L49.5058 24.7807H51.2681L51.4669 25.2309C51.503 25.3029 51.5301 25.3209 51.6115 25.3209H52.7411C52.7411 25.3209 52.7954 25.2939 52.7954 25.2759C52.7954 25.2579 52.7863 25.2219 52.7683 25.1949L50.9518 21.2869ZM49.9125 23.8351L50.0932 23.421C50.2017 23.1688 50.3553 22.6555 50.3553 22.6555H50.3915C50.3915 22.6555 50.5451 23.1688 50.6535 23.421L50.8343 23.8351H49.9034H49.9125Z" fill="#232323"/>
<path d="M60.8477 21.2869H56.9617C56.9617 21.2869 56.8623 21.3409 56.8623 21.3769V22.2143C56.8623 22.2143 56.9165 22.3044 56.9617 22.3044H58.2992V25.2309C58.2992 25.2309 58.3354 25.3119 58.3806 25.3119H59.4379C59.4379 25.3119 59.5193 25.2669 59.5193 25.2309V22.3044H60.8568C60.8568 22.3044 60.9471 22.2503 60.9471 22.2143V21.3769C60.9471 21.3769 60.8929 21.2869 60.8568 21.2869" fill="#232323"/>
<path d="M68.457 22.8533L67.4629 22.7632C67.1917 22.7362 67.1104 22.6462 67.1104 22.5381C67.1104 22.358 67.3544 22.205 67.7882 22.205C68.1497 22.205 68.3395 22.34 68.4027 22.4841C68.4389 22.5471 68.475 22.5742 68.5473 22.5742H69.4691C69.5595 22.5742 69.6228 22.5111 69.6228 22.4211C69.6228 21.8268 69.0534 21.2415 67.7972 21.2415C66.5411 21.2415 65.8994 21.8718 65.8994 22.6642C65.8994 23.3125 66.3874 23.6727 67.2098 23.7448L68.213 23.8348C68.5293 23.8708 68.6196 23.9789 68.6196 24.087C68.6196 24.2851 68.4208 24.4381 67.8605 24.4381C67.4358 24.4381 67.2369 24.3301 67.1285 24.096C67.0923 24.0239 67.0471 23.9789 66.9568 23.9789H66.0711C65.9808 23.9789 65.9085 24.0509 65.9085 24.141V24.195C65.9085 24.8613 66.6224 25.4017 67.8605 25.4017C69.2071 25.4017 69.8397 24.7263 69.8397 24.0059C69.8397 23.4116 69.4691 22.9524 68.457 22.8533Z" fill="#232323"/>
<path d="M101 4.60105C101 5.51952 100.277 6.2399 99.3369 6.2399C98.3971 6.2399 97.665 5.51952 97.665 4.60105C97.665 3.68258 98.4061 2.98022 99.3369 2.98022C100.268 2.98022 101 3.70059 101 4.60105ZM98.0808 4.60105C98.0808 5.32142 98.614 5.89772 99.346 5.89772C100.078 5.89772 100.584 5.32143 100.584 4.61006C100.584 3.8987 100.06 3.30438 99.3369 3.30438C98.614 3.30438 98.0808 3.88968 98.0808 4.60105ZM99.0839 5.44749H98.7043V3.82666C98.8489 3.79965 99.0568 3.77264 99.3279 3.77264C99.6352 3.77264 99.7707 3.82667 99.8882 3.8897C99.9786 3.96174 100.042 4.08782 100.042 4.2409C100.042 4.42099 99.9063 4.55604 99.7075 4.61908V4.63705C99.8611 4.70008 99.9515 4.81714 100.006 5.03326C100.06 5.27638 100.087 5.37544 100.123 5.43848H99.7165C99.6713 5.37544 99.6352 5.23137 99.59 5.04227C99.5629 4.86218 99.4634 4.78115 99.2556 4.78115H99.0748V5.42946L99.0839 5.44749ZM99.0929 4.529H99.2737C99.4815 4.529 99.6532 4.45701 99.6532 4.29492C99.6532 4.15085 99.5448 4.04277 99.3098 4.04277C99.2104 4.04277 99.1381 4.05179 99.102 4.06079V4.529H99.0929Z" fill="#232323"/>
</svg>
